<svg width="545" height="715" viewBox="0 0 545 715" fill="none" xmlns="http://www.w3.org/2000/svg">
<path d="M0 594.175C0 636.468 0 657.614 8.16515 673.768C15.3474 687.977 26.8078 699.529 40.9038 706.769C56.9288 715 77.9067 715 119.862 715H424.175C462.225 715 481.25 715 496.212 708.66C515.335 700.557 530.557 685.335 538.66 666.212C545 651.25 545 632.225 545 594.175V120.313C545 78.0201 545 56.8737 536.835 40.72C529.653 26.5108 518.192 14.9583 504.096 7.71834C497.241 4.19718 489.479 2.1824 479.555 1.02955C473.167 0.287323 469.972 -0.083808 455.819 0.0159794C446.804 0.0795385 427.197 1.82646 418.311 3.35771C404.36 5.76178 393.896 8.92139 372.969 15.2405L154.258 81.2838L89.9468 101.308C57.6488 111.365 41.4997 116.393 29.5389 126.116C18.9791 134.7 10.7834 145.835 5.72711 158.47C0 172.78 0 189.694 0 223.521V594.175Z" fill="#F7F8F8"/>
</svg>
